<?xml version="1.0" encoding="UTF-8" standalone="no"?>
<svg
   xmlns:dc="http://purl.org/dc/elements/1.1/"
   xmlns:cc="http://creativecommons.org/ns#"
   xmlns:rdf="http://www.w3.org/1999/02/22-rdf-syntax-ns#"
   xmlns:svg="http://www.w3.org/2000/svg"
   xmlns="http://www.w3.org/2000/svg"
   xmlns:sodipodi="http://sodipodi.sourceforge.net/DTD/sodipodi-0.dtd"
   xmlns:inkscape="http://www.inkscape.org/namespaces/inkscape"
   inkscape:version="1.0 (4035a4fb49, 2020-05-01)"
   sodipodi:docname="cards.svg"
   width="240"
   height="27"
   viewBox="0 0 240 27"
   id="svg2"
   version="1.1">
  <sodipodi:namedview
     inkscape:current-layer="svg2"
     inkscape:window-maximized="1"
     inkscape:window-y="0"
     inkscape:window-x="0"
     inkscape:cy="30.597638"
     inkscape:cx="120.7873"
     inkscape:zoom="4"
     inkscape:pagecheckerboard="false"
     showgrid="false"
     id="namedview78"
     inkscape:window-height="1016"
     inkscape:window-width="1920"
     inkscape:pageshadow="2"
     inkscape:pageopacity="0"
     guidetolerance="10"
     gridtolerance="10"
     objecttolerance="10"
     borderopacity="1"
     bordercolor="#666666"
     pagecolor="#000000" />
  <defs
     id="defs4" />
  <metadata
     id="metadata7">
    <rdf:RDF>
      <cc:Work
         rdf:about="">
        <dc:format>image/svg+xml</dc:format>
        <dc:type
           rdf:resource="http://purl.org/dc/dcmitype/StillImage" />
        <dc:title></dc:title>
      </cc:Work>
    </rdf:RDF>
  </metadata>
  <g
     transform="translate(-0.25287628)"
     id="g1662">
    <rect
       style="color:#000000;clip-rule:nonzero;display:inline;overflow:visible;visibility:visible;isolation:auto;mix-blend-mode:normal;color-interpolation:sRGB;color-interpolation-filters:linearRGB;solid-color:#000000;solid-opacity:1;fill:#ffffff;fill-opacity:1;fill-rule:nonzero;stroke:none;stroke-width:0.99833px;stroke-linecap:butt;stroke-linejoin:miter;stroke-miterlimit:4;stroke-dasharray:none;stroke-dashoffset:0;stroke-opacity:1;marker:none;color-rendering:auto;image-rendering:auto;shape-rendering:auto;text-rendering:auto;enable-background:accumulate"
       id="rect8165"
       width="50"
       height="27.000032"
       x="52.252876"
       y="-7.5084077e-14" />
    <g
       id="g1579"
       transform="translate(-0.45584018,-0.37559494)">
      <polygon
         id="polygon12946"
         points="583.119,19.214 584.646,19.214 584.646,23.963 583.796,23.963 583.796,19.797 583.645,19.797 582.071,22.85 581.531,22.85 579.926,19.75 579.75,19.75 579.75,23.963 578.924,23.963 578.924,19.214 580.532,19.214 581.845,21.795 "
         style="fill:#15699c"
         transform="matrix(0.08139577,0,0,0.08139577,53.19385,6.121644)" />
      <polygon
         id="polygon12948"
         points="575.345,23.963 575.345,20.017 573.81,20.017 573.81,19.214 577.75,19.214 577.75,20.017 576.218,20.017 576.218,23.963 "
         style="fill:#15699c"
         transform="matrix(0.08139577,0,0,0.08139577,53.19385,6.121644)" />
      <path
         id="path12950"
         d="M 99.508451,7.6376426 97.548115,16.48227 c -0.06699,0.287083 -0.362456,0.522886 -0.656376,0.522886 h -1.225983 c -0.295466,0 -0.481863,-0.235722 -0.416502,-0.522886 l 1.840521,-8.3217409 c 0.06544,-0.2878155 0.361967,-0.5228865 0.656946,-0.5228865 z"
         style="fill:#15699c;stroke-width:0.0813958" />
      <path
         id="path12952"
         d="M 94.338761,10.116551 C 93.817503,9.8242586 93.002568,9.6794555 91.88826,9.6794555 c -0.553003,0 -1.108041,0.041756 -1.661532,0.1273844 -0.557724,0.085547 -0.968284,0.1623846 -1.234693,0.2303501 l -0.231815,1.177634 c -0.0551,0.289281 -0.0088,0.525654 0.10728,0.525654 0.224164,-0.08254 0.563991,-0.188187 1.015575,-0.31549 0.453293,-0.126652 0.86776,-0.189978 1.240472,-0.189978 0.551456,0 0.965435,0.05885 1.244215,0.176385 0.276746,0.119977 0.416258,0.32599 0.416258,0.620235 0,0.07008 -0.009,0.136094 -0.02141,0.193641 -0.01432,0.05836 -0.02572,0.100524 -0.02881,0.126326 -0.787178,0.04542 -1.515833,0.118106 -2.194267,0.216594 -0.673794,0.09588 -1.254716,0.254444 -1.743579,0.474212 -0.520038,0.23442 -0.913993,0.545352 -1.177715,0.936703 -0.266165,0.391758 -0.398921,0.868655 -0.398921,1.431914 0,0.533224 0.185989,0.965679 0.559677,1.297856 0.374421,0.332176 0.855795,0.498549 1.446485,0.498549 0.366687,0 0.653363,-0.02686 0.86133,-0.07814 0.207396,-0.05177 0.426514,-0.126652 0.664026,-0.225955 0.172804,-0.07684 0.360258,-0.182489 0.563503,-0.316548 0.201943,-0.131617 0.375235,-0.246059 0.518817,-0.342106 l -0.176222,0.760562 h 1.724695 c 0.294734,0 0.589875,-0.235723 0.656701,-0.522887 l 1.000273,-4.32358 c 0.02483,-0.102233 0.04599,-0.21985 0.05917,-0.356677 0.01457,-0.134954 0.02312,-0.244431 0.02312,-0.32835 8.1e-5,-0.614864 -0.261769,-1.065471 -0.782132,-1.357193 z m -2.251895,5.031886 c -0.224408,0.16149 -0.463549,0.293432 -0.717911,0.396967 -0.254443,0.103617 -0.491224,0.156606 -0.71612,0.156606 -0.34056,0 -0.601189,-0.04973 -0.779446,-0.149443 -0.179315,-0.09824 -0.269502,-0.269745 -0.269502,-0.514584 0,-0.277804 0.06723,-0.501723 0.202676,-0.67005 0.134629,-0.167349 0.330304,-0.298234 0.585073,-0.391758 0.250862,-0.08823 0.550398,-0.155791 0.903981,-0.202756 0.353095,-0.04575 0.731993,-0.08636 1.136692,-0.120385 z"
         style="fill:#15699c;stroke-width:0.0813958" />
      <path
         id="path12954"
         d="M 87.892541,8.9353354 C 87.720145,8.6046244 87.466435,8.3346346 87.138003,8.1276452 86.800861,7.919272 86.405034,7.7743061 85.94531,7.6898987 85.48575,7.6059797 84.947887,7.5633283 84.327976,7.5633283 h -2.865293 c -0.295223,0 -0.589631,0.2339314 -0.65662,0.5209329 l -1.937464,8.3966248 c -0.06536,0.288548 0.121361,0.52427 0.415607,0.52427 h 1.375344 c 0.295386,0 0.590608,-0.235722 0.656864,-0.522886 l 0.4712,-2.035383 c 0.06512,-0.287083 0.361479,-0.523212 0.656457,-0.523212 h 0.392979 c 1.676265,0 2.981364,-0.34292 3.91652,-1.031284 0.93304,-0.688608 1.400659,-1.594543 1.400659,-2.718293 1.63e-4,-0.4946425 -0.08547,-0.9074004 -0.261688,-1.2387626 z m -2.963457,2.7438516 c -0.411781,0.301164 -0.989854,0.452804 -1.729986,0.452804 h -0.342432 c -0.294978,0 -0.481374,-0.234094 -0.415606,-0.523212 l 0.411944,-1.7814274 c 0.06723,-0.2870828 0.361641,-0.5215027 0.656375,-0.5215027 h 0.448328 c 0.527607,0 0.924005,0.088966 1.190576,0.2673852 0.267304,0.175245 0.400793,0.4477579 0.400793,0.8156669 -8.2e-5,0.558294 -0.20699,0.988389 -0.619992,1.290286 z"
         style="fill:#15699c;stroke-width:0.0813958" />
      <path
         id="path12956"
         d="m 77.885583,9.6843393 c -0.295223,0 -0.682748,0.2355593 -0.860272,0.5228867 l -2.427955,4.160707 -0.664515,-4.154277 C 73.865039,9.9248638 73.570549,9.6912579 73.275652,9.6912579 H 72.04975 c -0.295466,0 -0.483165,0.2336873 -0.416339,0.5223981 l 1.06254,6.860035 c 0.01913,0.148304 0.03842,0.273734 0.05657,0.380037 l -1.321948,2.211116 c -0.177769,0.287409 -0.08164,0.52305 0.215047,0.52305 h 1.42117 c 0.294979,0 0.680795,-0.235641 0.858237,-0.52305 L 79.8425,9.6843393 Z"
         style="fill:#173764;stroke-width:0.0813958" />
      <path
         id="path12958"
         d="M 70.119938,10.132097 C 69.59868,9.8389912 68.781792,9.6940254 67.667972,9.6940254 c -0.552026,0 -1.105924,0.042407 -1.661532,0.1282797 -0.557561,0.084489 -0.968284,0.161652 -1.232983,0.2296179 l -0.231327,1.178448 c -0.05771,0.289687 -0.01099,0.526223 0.105163,0.526223 0.226036,-0.08254 0.564806,-0.188187 1.017692,-0.315978 0.452642,-0.126896 0.865888,-0.190304 1.238111,-0.190304 0.5517,0 0.966575,0.05893 1.243727,0.176467 0.277478,0.118919 0.416747,0.326152 0.416747,0.620479 0,0.07057 -0.0087,0.135931 -0.01929,0.192908 -0.01595,0.05869 -0.02588,0.101664 -0.03044,0.127059 -0.78669,0.04534 -1.51681,0.117861 -2.192477,0.215373 -0.674771,0.09654 -1.256588,0.255665 -1.745369,0.475189 -0.520608,0.234338 -0.9144,0.545352 -1.178285,0.937354 -0.266083,0.391269 -0.398189,0.867923 -0.398189,1.430693 0,0.533468 0.186234,0.966656 0.561143,1.298344 0.372223,0.331362 0.855795,0.498793 1.445263,0.498793 0.366688,0 0.654504,-0.0271 0.860516,-0.0779 0.20699,-0.0534 0.428712,-0.126896 0.664353,-0.226362 0.173128,-0.07676 0.361478,-0.182327 0.564805,-0.315571 0.200071,-0.132676 0.375804,-0.247851 0.517026,-0.342758 l -0.17549,0.75926 h 1.724614 c 0.294571,0 0.591259,-0.235641 0.656782,-0.522073 l 1.000436,-4.323743 c 0.02572,-0.101338 0.04542,-0.220501 0.05917,-0.356514 0.01555,-0.135931 0.02214,-0.24435 0.02214,-0.32835 0,-0.614131 -0.259571,-1.065959 -0.780341,-1.356868 z M 67.86731,15.16317 c -0.222943,0.162059 -0.462816,0.294246 -0.717097,0.398269 -0.253954,0.103454 -0.492851,0.156199 -0.715794,0.156199 -0.341944,0 -0.602085,-0.05038 -0.781155,-0.148792 -0.177769,-0.09898 -0.268281,-0.270885 -0.268281,-0.515235 0,-0.277885 0.06691,-0.50156 0.202839,-0.67005 0.133326,-0.167431 0.330548,-0.299048 0.585154,-0.392816 0.248989,-0.08693 0.548689,-0.154245 0.901783,-0.201698 0.353665,-0.04583 0.733539,-0.08587 1.13889,-0.119978 z"
         style="fill:#173764;stroke-width:0.0813958" />
      <path
         id="path12960"
         d="M 63.6738,8.9505564 C 63.50116,8.6200082 63.248182,8.3493673 62.917715,8.1433546 62.582526,7.9356326 62.184175,7.7902597 61.726161,7.7056081 61.265705,7.6205495 60.727435,7.5787121 60.107037,7.5787121 h -2.863259 c -0.294735,0 -0.590852,0.2339314 -0.656295,0.5215841 l -1.938114,8.3958108 c -0.06666,0.28806 0.120221,0.5237 0.414304,0.5237 h 1.37624 c 0.294327,0 0.590933,-0.23564 0.656457,-0.522072 l 0.470956,-2.036359 c 0.06674,-0.286107 0.36213,-0.521747 0.656212,-0.521747 h 0.392979 c 1.678707,0 2.982585,-0.343002 3.916765,-1.031936 0.933366,-0.688445 1.402124,-1.59381 1.402124,-2.718374 0,-0.4952936 -0.08587,-0.9069934 -0.261606,-1.2387626 z M 60.709447,11.69514 c -0.413247,0.300921 -0.988633,0.452886 -1.730719,0.452886 h -0.340559 c -0.296851,0 -0.482922,-0.23564 -0.416503,-0.52313 l 0.411782,-1.7812652 c 0.06552,-0.2873271 0.362455,-0.5217469 0.656701,-0.5217469 h 0.449467 c 0.525247,0 0.923028,0.088721 1.189599,0.2670595 0.267467,0.1757335 0.400305,0.4483276 0.400305,0.8155046 8.1e-5,0.557235 -0.20642,0.987656 -0.620073,1.290692 z"
         style="fill:#173764;stroke-width:0.0813958" />
    </g>
  </g>
  <g
     transform="translate(-0.50575256)"
     id="g1671">
    <rect
       style="color:#000000;clip-rule:nonzero;display:inline;overflow:visible;visibility:visible;isolation:auto;mix-blend-mode:normal;color-interpolation:sRGB;color-interpolation-filters:linearRGB;solid-color:#000000;solid-opacity:1;fill:#ffffff;fill-opacity:1;fill-rule:nonzero;stroke:none;stroke-width:0.99833px;stroke-linecap:butt;stroke-linejoin:miter;stroke-miterlimit:4;stroke-dasharray:none;stroke-dashoffset:0;stroke-opacity:1;marker:none;color-rendering:auto;image-rendering:auto;shape-rendering:auto;text-rendering:auto;enable-background:accumulate"
       id="rect8165-6"
       width="50"
       height="27.000032"
       x="104.50575"
       y="-7.5084077e-14" />
    <g
       id="g1586"
       transform="translate(0.74468756,-0.08835304)">
      <path
         style="fill:#0059a4;fill-opacity:1;stroke-width:0.064654"
         id="path12"
         d="m 122.50241,19.971498 2.15686,-12.6568631 h 3.44994 l -2.15835,12.6568631 z" />
      <path
         style="fill:#0059a4;fill-opacity:1;stroke-width:0.064654"
         id="path14"
         d="m 138.41447,7.5876688 c -0.68352,-0.2564178 -1.75451,-0.5315853 -3.09194,-0.5315853 -3.40889,0 -5.81014,1.716564 -5.8305,4.1768435 -0.0193,1.818717 1.71417,2.833138 3.02277,3.438623 1.34286,0.620291 1.79427,1.015973 1.78794,1.569993 -0.009,0.848261 -1.07242,1.235926 -2.06395,1.235926 -1.38088,0 -2.11445,-0.191763 -3.24744,-0.664384 l -0.4445,-0.201074 -0.48426,2.833333 c 0.80585,0.353334 2.29587,0.65947 3.84291,0.675311 3.62644,0 5.98049,-1.697039 6.00739,-4.324254 0.0131,-1.439716 -0.90606,-2.535472 -2.89637,-3.438818 -1.20586,-0.585442 -1.94441,-0.976276 -1.93652,-1.569023 0,-0.52609 0.62501,-1.088774 1.97557,-1.088774 1.12821,-0.017457 1.94544,0.2286166 2.58209,0.484905 l 0.30904,0.146118 0.46777,-2.7432695" />
      <path
         style="fill:#0059a4;fill-opacity:1;stroke-width:0.064654"
         id="path16"
         d="m 147.29192,7.3146349 h -2.66568 c -0.82589,0 -1.44386,0.2254485 -1.80656,1.0495932 l -5.12351,11.5991229 h 3.62256 c 0,0 0.59243,-1.559648 0.72639,-1.901991 0.39588,0 3.91499,0.0054 4.4182,0.0054 0.10312,0.443009 0.4196,1.896496 0.4196,1.896496 h 3.20122 L 147.29186,7.3145056 Z m -4.22953,8.1727191 c 0.28531,-0.729297 1.37454,-3.538061 1.37454,-3.538061 -0.0204,0.03362 0.28319,-0.732853 0.45743,-1.20806 l 0.23314,1.091359 c 0,0 0.66057,3.021088 0.79861,3.654698 h -2.86372 z" />
      <path
         style="fill:#0059a4;fill-opacity:1;stroke-width:0.064654"
         id="path18"
         d="m 119.57397,7.3146349 -3.37752,8.6310521 -0.35993,-1.753934 c -0.62876,-2.02199 -2.58778,-4.212597 -4.7778,-5.3093877 l 3.08826,11.0690247 3.65011,-0.0042 5.43119,-12.6324238 h -3.65424" />
      <path
         style="fill:#f2ae14;stroke-width:0.064654"
         id="path20"
         d="m 113.04502,7.3146349 h -5.56283 l -0.0442,0.2633358 c 4.32794,1.0476536 7.19159,3.5794403 8.38032,6.6214753 L 114.6088,8.3831717 c -0.20883,-0.8013864 -0.81464,-1.0405416 -1.56385,-1.0684722" />
    </g>
  </g>
  <g
     transform="translate(-0.75862122)"
     id="g1706">
    <rect
       style="color:#000000;clip-rule:nonzero;display:inline;overflow:visible;visibility:visible;isolation:auto;mix-blend-mode:normal;color-interpolation:sRGB;color-interpolation-filters:linearRGB;solid-color:#000000;solid-opacity:1;fill:#003b72;fill-opacity:1;fill-rule:nonzero;stroke:none;stroke-width:0.985592px;stroke-linecap:butt;stroke-linejoin:miter;stroke-miterlimit:4;stroke-dasharray:none;stroke-dashoffset:0;stroke-opacity:1;marker:none;color-rendering:auto;image-rendering:auto;shape-rendering:auto;text-rendering:auto;enable-background:accumulate"
       id="rect8165-6-7"
       width="41"
       height="27.000032"
       x="156.75862"
       y="-7.5084077e-14" />
    <g
       id="g1619"
       transform="translate(-0.57125044,-0.3577668)">
      <g
         transform="matrix(0.12915724,0,0,0.12915724,158.45635,2.1691174)"
         id="g10305">
        <path
           id="path2268"
           style="fill:#ff9900"
           d="m 298.032,90.5 c 0.014,48.936 -39.646,88.614 -88.582,88.627 -48.937,0.012 -88.614,-39.646 -88.627,-88.582 0,-0.016 0,-0.029 0,-0.045 -0.013,-48.935 39.647,-88.615 88.581,-88.628 48.937,-0.013 88.615,39.647 88.628,88.583 0,0.015 0,0.029 0,0.045 z" />
        <path
           id="path1350"
           style="fill:#cc0000"
           d="M 90.001,1.895 C 41.355,2.204 1.967,41.781 1.967,90.5 c 0,48.909 39.695,88.604 88.605,88.604 22.955,0 43.879,-8.748 59.624,-23.086 -0.001,0 -0.003,-0.002 -0.007,-0.004 h 0.019 c 3.224,-2.938 6.231,-6.108 8.995,-9.488 H 141.05 c -2.424,-2.928 -4.627,-5.979 -6.606,-9.127 h 31.308 c 1.904,-3.047 3.628,-6.211 5.158,-9.488 h -41.635 c -1.419,-3.042 -2.651,-6.153 -3.703,-9.309 h 49.045 c 2.956,-8.832 4.56,-18.281 4.56,-28.103 0,-6.512 -0.706,-12.861 -2.042,-18.974 h -54.164 c 0.671,-3.146 1.518,-6.254 2.528,-9.308 h 49.063 c -1.097,-3.25 -2.371,-6.417 -3.82,-9.487 H 129.27 c 1.496,-3.196 3.191,-6.305 5.084,-9.307 h 31.285 c -2.082,-3.317 -4.386,-6.486 -6.877,-9.488 h -17.443 c 2.697,-3.174 5.666,-6.163 8.889,-8.95 -15.746,-14.34 -36.676,-23.09 -59.636,-23.09 -0.191,0 -0.38,-0.001 -0.571,0 z" />
        <path
           id="use9412"
           style="fill:#fcb340"
           d="m 289.143,136.82 c 0.482,0 0.951,0.125 1.409,0.371 0.46,0.246 0.814,0.601 1.07,1.062 0.256,0.456 0.384,0.937 0.384,1.435 0,0.492 -0.127,0.968 -0.379,1.424 -0.251,0.455 -0.605,0.81 -1.061,1.063 -0.451,0.249 -0.928,0.375 -1.424,0.375 -0.496,0 -0.972,-0.126 -1.426,-0.375 -0.455,-0.254 -0.807,-0.607 -1.063,-1.063 -0.252,-0.456 -0.377,-0.932 -0.377,-1.424 0,-0.498 0.127,-0.979 0.384,-1.435 0.258,-0.461 0.614,-0.813 1.071,-1.062 0.462,-0.246 0.931,-0.371 1.412,-0.371 m 0,0.475 c -0.401,0 -0.793,0.104 -1.176,0.311 -0.38,0.207 -0.677,0.5 -0.891,0.888 -0.217,0.382 -0.325,0.778 -0.325,1.194 0,0.412 0.106,0.81 0.315,1.188 0.214,0.377 0.51,0.673 0.888,0.885 0.381,0.211 0.776,0.315 1.188,0.315 0.414,0 0.81,-0.104 1.189,-0.315 0.378,-0.212 0.673,-0.508 0.884,-0.885 0.209,-0.378 0.313,-0.775 0.313,-1.188 0,-0.416 -0.106,-0.813 -0.321,-1.194 -0.213,-0.388 -0.511,-0.681 -0.894,-0.888 -0.379,-0.208 -0.769,-0.311 -1.17,-0.311 m -1.256,3.975 v -3.082 h 1.062 c 0.36,0 0.622,0.028 0.784,0.088 0.162,0.057 0.291,0.154 0.388,0.297 0.095,0.141 0.144,0.291 0.144,0.451 0,0.226 -0.08,0.422 -0.242,0.588 -0.158,0.166 -0.373,0.261 -0.639,0.281 0.109,0.045 0.196,0.102 0.264,0.164 0.125,0.12 0.275,0.323 0.455,0.61 l 0.375,0.603 h -0.606 l -0.272,-0.485 c -0.215,-0.382 -0.388,-0.62 -0.521,-0.718 -0.091,-0.069 -0.224,-0.105 -0.397,-0.105 h -0.293 v 1.311 h -0.5 m 0.496,-1.738 h 0.604 c 0.288,0 0.483,-0.044 0.588,-0.129 0.106,-0.088 0.159,-0.2 0.159,-0.342 0,-0.092 -0.024,-0.174 -0.075,-0.244 -0.052,-0.073 -0.122,-0.125 -0.213,-0.162 -0.089,-0.035 -0.255,-0.055 -0.497,-0.055 h -0.564 v 0.932" />
      </g>
      <g
         transform="matrix(0.12915724,0,0,0.12915724,158.45635,2.1691174)"
         id="g16480">
        <g
           id="g13802"
           transform="translate(-13.74405,15.9939)">
          <path
             id="path13804"
             style="fill:#000066"
             d="m 133.719,99.926 1.18,-8.02 c -0.645,0 -1.593,0.279 -2.431,0.279 -3.284,0 -3.694,-1.755 -3.436,-3.037 l 3.236,-16.13 h 4.992 l 1.029,-9.103 h -4.705 l 0.958,-5.516 H 124.7 c -0.208,0.208 -5.568,31.022 -5.568,34.776 0,5.555 3.118,8.027 7.516,7.988 3.442,-0.029 6.125,-0.982 7.071,-1.237 z" />
          <path
             id="path13806"
             style="fill:#000066"
             d="m 136.706,84.638 c 0,13.332 8.799,16.499 16.297,16.499 6.921,0 10.55,-1.604 10.55,-1.604 l 1.662,-9.1 c 0,0 -5.848,2.378 -10.601,2.378 -10.131,0 -8.355,-7.554 -8.355,-7.554 l 19.463,0.059 c 0,0 1.239,-6.111 1.239,-8.602 0,-6.217 -3.387,-13.849 -13.745,-13.849 -9.486,0.002 -16.51,10.223 -16.51,21.773 z m 16.546,-13.325 c 5.324,0 4.342,5.984 4.342,6.469 H 147.12 c 0,-0.62 0.989,-6.469 6.132,-6.469 z" />
          <path
             id="path13808"
             style="fill:#000066"
             d="m 212.99,99.923 1.689,-10.284 c 0,0 -4.632,2.321 -7.807,2.321 -6.693,0 -9.378,-5.11 -9.378,-10.601 0,-11.137 5.758,-17.265 12.168,-17.265 4.808,0 8.665,2.699 8.665,2.699 l 1.54,-9.993 c 0,0 -4.554,-3.289 -9.456,-3.308 -14.745,-0.058 -23.182,10.208 -23.182,27.955 0,11.763 6.248,19.768 17.506,19.768 3.183,0 8.255,-1.292 8.255,-1.292 z" />
          <path
             id="path13810"
             style="fill:#000066"
             d="m 81.83,63.012 c -6.469,0 -11.427,2.079 -11.427,2.079 l -1.37,8.127 c 0,0 4.093,-1.663 10.281,-1.663 3.513,0 6.083,0.395 6.083,3.25 0,1.734 -0.314,2.374 -0.314,2.374 0,0 -2.772,-0.231 -4.056,-0.231 -9.21,0 -16.729,3.482 -16.729,13.98 0,8.273 5.623,10.17 9.108,10.17 6.657,0 9.292,-4.203 9.444,-4.215 l -0.077,3.488 c 0,0 8.306,0 8.307,0 l 3.706,-25.98 C 94.786,63.366 85.17,63.012 81.83,63.012 Z m 1.438,21.096 c 0.181,1.586 -0.41,9.086 -6.092,9.086 -2.93,0 -3.691,-2.24 -3.691,-3.562 0,-2.584 1.403,-5.683 8.315,-5.683 1.61,0 1.197,0.116 1.468,0.159 z" />
          <path
             id="path13812"
             style="fill:#000066"
             d="m 103.615,100.906 c 2.125,0 14.272,0.541 14.272,-11.994 0,-11.721 -11.244,-9.404 -11.244,-14.114 0,-2.342 1.833,-3.08 5.184,-3.08 1.329,0 6.447,0.423 6.447,0.423 l 1.189,-8.33 c 0,10e-4 -3.312,-0.741 -8.704,-0.741 -6.979,0 -14.063,2.786 -14.063,12.318 0,10.802 11.812,9.717 11.812,14.267 0,3.037 -3.3,3.287 -5.844,3.287 -4.401,0 -8.363,-1.511 -8.377,-1.438 l -1.259,8.245 c 0.229,0.07 2.674,1.157 10.587,1.157 z" />
          <path
             id="path13814"
             style="fill:#000066"
             d="m 290.807,55.455 -1.705,12.709 c 0,0 -3.553,-4.905 -9.112,-4.905 -10.459,0 -15.849,10.423 -15.849,22.396 0,7.73 3.844,15.307 11.699,15.307 5.651,0 8.784,-3.941 8.784,-3.941 l -0.415,3.365 h 9.178 l 7.207,-44.862 z m -4.052,24.701 c 0,4.983 -2.468,11.64 -7.581,11.64 -3.396,0 -4.988,-2.851 -4.988,-7.324 0,-7.315 3.285,-12.14 7.432,-12.14 3.394,0 5.137,2.33 5.137,7.824 z" />
          <path
             id="path13816"
             style="fill:#000066"
             d="m 30.749,100.423 5.743,-33.87 0.844,33.87 h 6.499 l 12.125,-33.87 -5.371,33.87 h 9.658 L 67.684,55.501 52.342,55.384 43.216,82.888 42.966,55.501 h -14.06 l -7.544,44.922 z" />
          <path
             id="path13818"
             style="fill:#000066"
             d="m 176.101,100.487 c 2.746,-15.615 3.724,-27.947 11.732,-25.393 1.15,-6.044 3.891,-11.3 5.143,-13.858 0,0 -0.396,-0.589 -2.871,-0.589 -4.225,0 -9.866,8.574 -9.866,8.574 l 0.843,-5.301 h -8.786 l -5.884,36.566 h 9.689 z" />
          <g
             id="use14699"
             transform="translate(845.3001)">
            <path
               id="path13810_1_"
               style="fill:#000066"
               d="m -612.55,63.012 c -6.472,0 -11.43,2.079 -11.43,2.079 l -1.369,8.127 c 0,0 4.095,-1.663 10.28,-1.663 3.514,0 6.083,0.395 6.083,3.25 0,1.734 -0.313,2.374 -0.313,2.374 0,0 -2.771,-0.231 -4.055,-0.231 -9.211,0 -16.729,3.482 -16.729,13.98 0,8.273 5.622,10.17 9.107,10.17 6.655,0 9.292,-4.203 9.443,-4.215 l -0.078,3.488 h 8.309 l 3.705,-25.98 c 10e-4,-11.025 -9.615,-11.379 -12.953,-11.379 z m 1.436,21.096 c 0.18,1.586 -0.411,9.086 -6.092,9.086 -2.932,0 -3.692,-2.24 -3.692,-3.562 0,-2.584 1.402,-5.683 8.315,-5.683 1.611,0 1.199,0.116 1.469,0.159 z" />
          </g>
          <path
             id="use14701"
             style="fill:#000066"
             d="m 255.266,100.487 c 1.508,-11.488 4.299,-27.616 11.731,-25.393 1.149,-6.044 0.041,-6.028 -2.433,-6.028 -4.228,0 -5.164,0.154 -5.164,0.154 l 0.844,-5.301 h -8.785 l -5.884,36.567 h 9.691 z" />
        </g>
        <g
           id="g10289">
          <path
             id="path4157"
             style="fill:#ffffff"
             d="m 122.434,113.059 1.181,-8.019 c -0.645,0 -1.594,0.276 -2.431,0.276 -3.284,0 -3.646,-1.746 -3.437,-3.037 L 120.4,85.917 h 4.991 l 1.205,-8.87 h -4.706 l 0.958,-5.516 h -9.434 c -0.208,0.208 -5.569,31.023 -5.569,34.775 0,5.555 3.119,8.029 7.517,7.989 3.444,-0.029 6.126,-0.982 7.072,-1.236 z" />
          <path
             id="path4155"
             style="fill:#ffffff"
             d="m 125.423,97.77 c 0,13.332 8.8,16.5 16.297,16.5 6.92,0 9.965,-1.547 9.965,-1.547 l 1.662,-9.099 c 0,0 -5.264,2.319 -10.018,2.319 -10.13,0 -8.356,-7.553 -8.356,-7.553 h 19.172 c 0,0 1.238,-6.113 1.238,-8.604 0,-6.216 -3.094,-13.79 -13.452,-13.79 -9.486,0.002 -16.508,10.223 -16.508,21.774 z m 16.544,-13.325 c 5.324,0 4.342,5.983 4.342,6.467 h -10.474 c 0,-0.618 0.99,-6.467 6.132,-6.467 z" />
          <path
             id="path4151"
             style="fill:#ffffff"
             d="m 201.707,113.055 1.688,-10.285 c 0,0 -4.629,2.321 -7.806,2.321 -6.692,0 -9.376,-5.11 -9.376,-10.6 0,-11.137 5.758,-17.264 12.168,-17.264 4.807,0 8.665,2.699 8.665,2.699 l 1.54,-9.993 c 0,0 -5.721,-2.315 -10.625,-2.315 -10.891,0 -21.486,9.448 -21.486,27.192 0,11.766 5.721,19.537 16.979,19.537 3.183,0.001 8.253,-1.292 8.253,-1.292 z" />
          <path
             id="path4149"
             style="fill:#ffffff"
             d="m 70.547,76.143 c -6.469,0 -11.428,2.079 -11.428,2.079 l -1.369,8.127 c 0,0 4.093,-1.663 10.28,-1.663 3.513,0 6.083,0.395 6.083,3.25 0,1.734 -0.315,2.374 -0.315,2.374 0,0 -2.771,-0.232 -4.054,-0.232 -8.159,0 -16.73,3.482 -16.73,13.98 0,8.272 5.623,10.17 9.108,10.17 6.656,0 9.525,-4.319 9.678,-4.332 l -0.311,3.605 h 8.307 L 83.502,87.52 c 0,-11.022 -9.615,-11.377 -12.955,-11.377 z m 2.021,21.154 c 0.18,1.587 -0.995,9.026 -6.675,9.026 -2.93,0 -3.692,-2.238 -3.692,-3.562 0,-2.582 1.403,-5.682 8.316,-5.682 1.608,0.002 1.78,0.174 2.051,0.218 z" />
          <path
             id="path4145"
             style="fill:#ffffff"
             d="m 92.331,114.038 c 2.125,0 14.273,0.54 14.273,-11.995 0,-11.719 -11.245,-9.404 -11.245,-14.112 0,-2.344 1.833,-3.082 5.183,-3.082 1.33,0 6.447,0.423 6.447,0.423 l 1.19,-8.33 c 0,0.001 -3.312,-0.741 -8.704,-0.741 -6.979,0 -14.063,2.786 -14.063,12.318 0,10.801 11.812,9.717 11.812,14.267 0,3.037 -3.3,3.284 -5.843,3.284 -4.401,0 -8.364,-1.51 -8.378,-1.438 l -1.258,8.246 c 0.228,0.07 2.672,1.16 10.586,1.16 z" />
          <path
             id="path4139"
             style="fill:#ffffff"
             d="m 279.852,68.668 -2.035,12.627 c 0,0 -3.551,-4.905 -9.11,-4.905 -8.644,0 -15.849,10.422 -15.849,22.397 0,7.73 3.843,15.304 11.699,15.304 5.651,0 8.784,-3.94 8.784,-3.94 l -0.415,3.365 h 9.176 l 7.207,-44.863 z m -4.381,24.62 c 0,4.983 -2.467,11.639 -7.582,11.639 -3.395,0 -4.986,-2.85 -4.986,-7.323 0,-7.314 3.285,-12.14 7.43,-12.14 3.396,-0.001 5.138,2.332 5.138,7.824 z" />
          <path
             id="path4133"
             style="fill:#ffffff"
             d="m 19.466,113.555 5.743,-33.87 0.843,33.87 h 6.5 l 12.125,-33.87 -5.371,33.87 h 9.658 L 56.402,68.632 H 41.467 L 32.166,96.195 31.682,68.632 H 17.915 l -7.545,44.923 z" />
          <path
             id="path4131"
             style="fill:#ffffff"
             d="m 164.818,113.617 c 2.746,-15.616 3.255,-28.296 9.808,-25.975 1.147,-6.044 2.254,-8.382 3.506,-10.94 0,0 -0.587,-0.123 -1.819,-0.123 -4.225,0 -7.355,5.772 -7.355,5.772 l 0.841,-5.301 h -8.784 l -5.885,36.567 z" />
          <g
             id="use8523"
             transform="translate(847.0062)">
            <path
               id="path4149_1_"
               style="fill:#ffffff"
               d="m -623.531,76.143 c -6.469,0 -11.428,2.079 -11.428,2.079 l -1.368,8.127 c 0,0 4.093,-1.663 10.28,-1.663 3.513,0 6.081,0.395 6.081,3.25 0,1.734 -0.313,2.374 -0.313,2.374 0,0 -2.771,-0.232 -4.055,-0.232 -8.158,0 -16.729,3.482 -16.729,13.98 0,8.272 5.622,10.17 9.107,10.17 6.656,0 9.525,-4.319 9.677,-4.332 l -0.309,3.605 c 0,0 8.304,0 8.307,0 l 3.705,-25.981 c 10e-4,-11.022 -9.615,-11.377 -12.955,-11.377 z m 2.024,21.154 c 0.18,1.587 -0.996,9.026 -6.678,9.026 -2.93,0 -3.69,-2.238 -3.69,-3.562 0,-2.582 1.403,-5.682 8.315,-5.682 1.608,0.002 1.779,0.174 2.053,0.218 z" />
          </g>
          <g
             id="use8525"
             transform="translate(442.2857)">
            <path
               id="path4131_1_"
               style="fill:#ffffff"
               d="m -198.263,113.617 c 2.747,-15.616 3.256,-28.296 9.807,-25.975 1.149,-6.044 2.257,-8.382 3.508,-10.94 0,0 -0.587,-0.123 -1.819,-0.123 -4.225,0 -7.355,5.772 -7.355,5.772 l 0.841,-5.301 h -8.784 l -5.885,36.567 z" />
          </g>
          <path
             id="text9407"
             style="fill:#ffffff"
             d="m 289.105,107.975 c 0.479,0 0.951,0.123 1.406,0.373 0.459,0.242 0.816,0.598 1.072,1.059 0.257,0.458 0.383,0.935 0.383,1.434 0,0.493 -0.126,0.969 -0.379,1.424 -0.251,0.455 -0.604,0.812 -1.059,1.063 -0.454,0.25 -0.93,0.376 -1.424,0.376 -0.498,0 -0.974,-0.126 -1.429,-0.376 -0.454,-0.253 -0.806,-0.608 -1.058,-1.063 -0.256,-0.455 -0.381,-0.931 -0.381,-1.424 0,-0.499 0.127,-0.976 0.384,-1.434 0.258,-0.461 0.616,-0.815 1.073,-1.059 0.461,-0.25 0.933,-0.373 1.412,-0.373 m 0,0.472 c -0.401,0 -0.793,0.104 -1.176,0.313 -0.382,0.204 -0.679,0.499 -0.894,0.885 -0.214,0.381 -0.322,0.78 -0.322,1.194 0,0.414 0.104,0.81 0.313,1.188 0.213,0.377 0.509,0.673 0.891,0.886 0.378,0.208 0.773,0.313 1.188,0.313 0.412,0 0.81,-0.105 1.188,-0.313 0.378,-0.213 0.674,-0.509 0.884,-0.886 0.211,-0.381 0.314,-0.774 0.314,-1.188 0,-0.414 -0.107,-0.813 -0.321,-1.194 -0.213,-0.386 -0.51,-0.681 -0.894,-0.885 -0.38,-0.208 -0.769,-0.313 -1.171,-0.313 m -1.255,3.976 v -3.083 h 1.061 c 0.361,0 0.625,0.029 0.785,0.088 0.162,0.055 0.289,0.154 0.388,0.297 0.097,0.142 0.146,0.291 0.146,0.451 0,0.225 -0.082,0.422 -0.244,0.588 -0.158,0.166 -0.371,0.262 -0.637,0.28 0.106,0.046 0.194,0.101 0.262,0.163 0.123,0.122 0.275,0.326 0.455,0.611 l 0.377,0.604 h -0.609 l -0.271,-0.485 c -0.216,-0.383 -0.389,-0.621 -0.521,-0.718 -0.091,-0.071 -0.224,-0.106 -0.399,-0.106 h -0.291 v 1.311 l -0.502,-0.001 m 0.498,-1.735 h 0.604 c 0.289,0 0.484,-0.043 0.588,-0.129 0.105,-0.084 0.16,-0.199 0.16,-0.342 0,-0.091 -0.025,-0.173 -0.075,-0.242 -0.051,-0.074 -0.122,-0.127 -0.213,-0.164 -0.091,-0.035 -0.254,-0.053 -0.498,-0.053 h -0.565 v 0.93" />
        </g>
      </g>
    </g>
  </g>
  <g
     id="g1730">
    <rect
       style="color:#000000;clip-rule:nonzero;display:inline;overflow:visible;visibility:visible;isolation:auto;mix-blend-mode:normal;color-interpolation:sRGB;color-interpolation-filters:linearRGB;solid-color:#000000;solid-opacity:1;fill:#003b72;fill-opacity:1;fill-rule:nonzero;stroke:none;stroke-width:1.00782px;stroke-linecap:butt;stroke-linejoin:miter;stroke-miterlimit:4;stroke-dasharray:none;stroke-dashoffset:0;stroke-opacity:1;marker:none;color-rendering:auto;image-rendering:auto;shape-rendering:auto;text-rendering:auto;enable-background:accumulate"
       id="rect8165-6-7-3"
       width="41"
       height="27"
       x="199"
       y="-7.5084077e-14" />
    <g
       id="g1641"
       transform="translate(-0.79591,-0.39155665)">
      <path
         d="m 221.29591,22.351188 c 2.30798,-2.088366 3.75055,-5.10655 3.75055,-8.460998 0,-3.354145 -1.44257,-6.3698981 -3.75055,-8.4585685 -2.01941,-1.83594 -4.71774,-2.9531782 -7.6536,-2.9531782 -6.31309,0 -11.42116,5.1089801 -11.42116,11.4117467 0,6.305196 5.10807,11.414177 11.42116,11.414177 2.93556,3.03e-4 5.63388,-1.119365 7.6536,-2.953179"
         id="path618"
         style="fill:#0066cb;stroke-width:0.303762" />
      <path
         d="m 221.29591,22.351188 c 2.30798,-2.088366 3.75055,-5.10655 3.75055,-8.460998 0,-3.354145 -1.44257,-6.3698981 -3.75055,-8.4585685"
         id="path620"
         style="fill:#0066cb;stroke-width:0.303762" />
      <path
         d="m 221.29591,22.351188 c 2.30798,-2.088366 3.75055,-5.10655 3.75055,-8.460998 0,-3.354145 -1.44257,-6.3698981 -3.75055,-8.4585685"
         id="path622"
         style="fill:none;stroke:#0066cb;stroke-width:0.309701" />
      <path
         d="m 228.96652,2.478747 c -2.95288,0 -5.6512,1.1172382 -7.67061,2.9531783 -0.40735,0.3754503 -0.79768,0.7788468 -1.154,1.2098857 h 2.30799 c 0.3226,0.3824369 0.61117,0.7858334 0.86572,1.2077594 h -4.03912 c -0.23755,0.3869933 -0.45808,0.7903898 -0.6619,1.2077594 h 5.36262 c 0.18651,0.3918535 0.3393,0.7949462 0.47508,1.2098852 h -6.31309 c -0.13578,0.391854 -0.25455,0.795251 -0.3393,1.20776 h 6.992 c 0.1698,0.778847 0.25455,1.587766 0.25455,2.415519 0,1.2676 -0.20382,2.487206 -0.59416,3.625404 h -6.31279 c 0.13578,0.414636 0.28858,0.818032 0.47509,1.209582 h 5.36262 c -0.20383,0.417673 -0.40735,0.820766 -0.6619,1.208063 h -4.03913 c 0.25455,0.421926 0.56014,0.825323 0.86572,1.208063 h 2.30799 c -0.35631,0.430735 -0.74665,0.834132 -1.15399,1.209582 2.01941,1.833814 4.71773,2.953482 7.67061,2.953482 6.29608,0 11.40415,-5.10898 11.40415,-11.414176 0,-6.3027668 -5.10837,-11.411747 -11.40415,-11.411747"
         id="path624"
         style="fill:#cc0001;stroke-width:0.303762" />
      <path
         d="m 239.16564,20.230319 h 0.051 c 0.0173,0 0.0337,0.0024 0.0337,-0.0049 0.0173,-0.0091 0.034,-0.02309 0.034,-0.03675 0,-0.01428 -0.017,-0.02795 -0.034,-0.03493 0,-0.007 -0.0337,-0.0049 -0.0337,-0.0049 h -0.051 z m 0,0.185295 h -0.0677 v -0.324418 h 0.13579 c 0.0337,0 0.0507,0 0.0848,0.0164 0.017,0.01853 0.0337,0.0486 0.0337,0.08141 0,0.03676 -0.017,0.06956 -0.051,0.08293 l 0.051,0.143983 h -0.0847 l -0.0337,-0.129707 h -0.0684 v 0.129403 z m 0.051,0.118468 c 0.15279,0 0.28857,-0.125151 0.28857,-0.280677 0,-0.155526 -0.13578,-0.280676 -0.28857,-0.280676 -0.15249,0 -0.27157,0.12515 -0.27157,0.280676 0,0.155526 0.11908,0.280677 0.27157,0.280677 z m -0.37333,-0.280677 c 0,-0.204128 0.1698,-0.368464 0.37333,-0.368464 0.20382,0 0.37332,0.164336 0.37332,0.368464 0,0.204128 -0.1698,0.368464 -0.37332,0.368464 -0.20353,0 -0.37333,-0.164336 -0.37333,-0.368464"
         id="path626"
         style="fill:#231f20;stroke-width:0.303762" />
      <path
         d="m 211.86014,17.06633 h -1.44257 l 0.84841,-4.448601 -1.95168,4.448601 h -1.18801 l -0.23754,-4.423085 -0.95017,4.423085 h -1.30679 l 1.10296,-5.785763 h 2.25726 l 0.0337,3.581359 1.56134,-3.581359 h 2.39273 l -1.11966,5.785763"
         id="path628"
         style="fill:#231f20;stroke-width:0.303762" />
      <path
         d="m 227.72747,17.008007 c -0.39034,0.106925 -0.69592,0.153097 -1.01821,0.153097 -0.72964,0 -1.12028,-0.363908 -1.12028,-1.033704 0,-0.132137 0,-0.273386 0.0337,-0.42223 l 0.0847,-0.461111 0.068,-0.370894 0.6619,-3.593206 h 1.40855 l -0.20352,1.08018 h 0.72963 l -0.20352,1.142754 h -0.72963 l -0.37333,1.96352 c -0.017,0.08779 -0.017,0.150666 -0.017,0.194712 0,0.243313 0.13578,0.349934 0.47508,0.349934 0.16981,0 0.28828,-0.01367 0.39034,-0.04404 l -0.18651,1.040993"
         id="path630"
         style="fill:#231f20;stroke-width:0.303762" />
      <path
         d="m 222.09359,13.846448 c 0,0.595678 0.32259,1.003935 1.08595,1.31195 0.57715,0.236631 0.6786,0.306192 0.6786,0.519434 0,0.294649 -0.25455,0.426178 -0.83109,0.426178 -0.42436,0 -0.8317,-0.05741 -1.28978,-0.187421 l -0.18681,1.086862 0.051,0.0094 0.27157,0.0486 c 0.0847,0.01397 0.20382,0.02795 0.37332,0.04162 0.3393,0.02552 0.61087,0.03979 0.79738,0.03979 1.51061,0 2.20653,-0.498474 2.20653,-1.571667 0,-0.644584 -0.28858,-1.024591 -1.00151,-1.310127 -0.61086,-0.238757 -0.6786,-0.28979 -0.6786,-0.509714 0,-0.25516 0.23754,-0.384867 0.69592,-0.384867 0.28827,0 0.6786,0.02795 1.03492,0.07199 l 0.20382,-1.089596 c -0.37332,-0.05103 -0.93346,-0.09265 -1.25606,-0.09265 -1.61206,0 -2.1722,0.723258 -2.15519,1.590196"
         id="path632"
         style="fill:#231f20;stroke-width:0.303762" />
      <path
         d="m 215.49192,14.970673 c -0.15249,-0.0164 -0.22053,-0.02066 -0.3226,-0.02066 -0.79737,0 -1.20472,0.240884 -1.20472,0.715968 0,0.291916 0.20352,0.479945 0.50911,0.479945 0.57684,3.03e-4 1.0012,-0.479641 1.01821,-1.175257 z m 0.96718,2.095657 h -1.18802 l 0.034,-0.489058 c -0.37333,0.386994 -0.84841,0.570162 -1.4936,0.570162 -0.78067,0 -1.30679,-0.52399 -1.30679,-1.284307 0,-1.147311 0.91645,-1.814981 2.4945,-1.814981 0.1698,0 0.37332,0.01124 0.57715,0.03676 0.0507,-0.155223 0.0677,-0.222355 0.0677,-0.305889 0,-0.312875 -0.25455,-0.428913 -0.91645,-0.428913 -0.40734,0 -0.86542,0.05103 -1.18801,0.132137 l -0.18682,0.0486 -0.13578,0.03007 0.20352,-1.056789 c 0.71263,-0.181042 1.1707,-0.2503 1.69682,-0.2503 1.22173,0 1.86692,0.477514 1.86692,1.381511 0,0.231771 -0.017,0.407953 -0.11877,0.931943 l -0.28857,1.668871 -0.0507,0.298902 -0.034,0.238758 -0.034,0.164639 v 0.127884"
         id="path634"
         style="fill:#231f20;stroke-width:0.303762" />
      <path
         d="m 220.43049,14.16388 c 0,-0.0972 0.017,-0.178309 0.017,-0.238757 0,-0.382437 -0.25455,-0.607525 -0.67891,-0.607525 -0.45807,0 -0.78067,0.301332 -0.89944,0.843548 z m 0.69561,2.800386 c -0.49209,0.13001 -0.96748,0.192281 -1.45957,0.189851 -1.59506,0 -2.40975,-0.723258 -2.40975,-2.106896 0,-1.615712 1.05223,-2.804942 2.47779,-2.804942 1.1707,0 1.91765,0.665239 1.91765,1.710486 0,0.348112 -0.051,0.683769 -0.18681,1.161284 h -2.8171 c -0.017,0.07169 -0.017,0.104494 -0.017,0.148236 0,0.544646 0.42436,0.822892 1.25576,0.822892 0.5091,0 0.96748,-0.09022 1.47659,-0.296776 l -0.23755,1.175865"
         id="path636"
         style="fill:#231f20;stroke-width:0.303762" />
      <path
         d="m 234.83824,14.370438 c 0,-0.491487 -0.20352,-0.957459 -0.78036,-0.957459 -0.72964,0 -1.1707,0.857825 -1.1707,1.613282 0,0.637598 0.30528,1.06651 0.81469,1.05679 0.30528,0 0.96718,-0.419496 1.08595,-1.152171 0.0334,-0.168892 0.0504,-0.356313 0.0504,-0.560442 z m 1.44257,0.562872 c -0.20382,1.56468 -1.30678,2.25817 -2.76606,2.25817 -1.59536,0 -2.24025,-0.973559 -2.24025,-2.167345 0,-1.669175 1.08626,-2.797956 2.78338,-2.797956 1.47628,0 2.25726,0.929513 2.25726,2.123603 -3.1e-4,0.289486 -3.1e-4,0.310142 -0.0343,0.583528"
         id="path638"
         style="fill:#231f20;stroke-width:0.303762" />
      <path
         d="m 236.7559,16.343071 h 0.0507 c 0,0 0.0173,0 0.034,-0.007 0.0167,-0.007 0.017,-0.02309 0.017,-0.03706 0,-0.01154 0,-0.02552 -0.017,-0.0322 0,-0.007 -0.034,-0.007 -0.0507,-0.007 h -0.034 z m 0,0.183169 h -0.068 v -0.324418 h 0.13579 c 0.017,0 0.051,0.0024 0.0847,0.01883 0.017,0.0161 0.0337,0.0486 0.0337,0.08111 0,0.03463 -0.017,0.06956 -0.0507,0.08323 l 0.0507,0.141553 h -0.0848 l -0.051,-0.12758 h -0.0504 z m 0.0507,0.118164 c 0.1531,0 0.27187,-0.12515 0.27187,-0.280677 0,-0.153096 -0.11877,-0.278246 -0.27187,-0.278246 -0.15248,0 -0.28827,0.12515 -0.28827,0.278246 0,0.155527 0.13579,0.280677 0.28827,0.280677 z m -0.37302,-0.280677 c 0,-0.201698 0.16981,-0.366033 0.37333,-0.366033 0.20382,0 0.37332,0.164335 0.37332,0.366033 0,0.204129 -0.1698,0.368464 -0.37332,0.368464 -0.20383,0 -0.37333,-0.164335 -0.37333,-0.368464"
         id="path640"
         style="fill:#ffffff;stroke-width:0.303762" />
      <path
         d="m 212.21645,16.732191 h -1.42556 l 0.84841,-4.448297 -1.95167,4.448297 h -1.28978 l -0.23754,-4.420351 -0.84841,4.420351 h -1.28977 l 1.10296,-5.785763 h 2.22293 l 0.10176,3.583789 1.57835,-3.583789 h 2.30799 l -1.11967,5.785763"
         id="path642"
         style="fill:#ffffff;stroke-width:0.303762" />
      <path
         d="m 228.08409,16.676906 c -0.39034,0.106621 -0.69592,0.152793 -1.01852,0.152793 -0.72964,0 -1.12027,-0.366034 -1.12027,-1.0334 0,-0.13244 0.017,-0.273386 0.034,-0.421926 l 0.0847,-0.461719 0.0677,-0.373324 0.6622,-3.592902 h 1.40854 l -0.20352,1.080179 h 0.72964 l -0.20382,1.145185 h -0.72964 l -0.37333,1.963216 c -0.017,0.08597 -0.017,0.150666 -0.017,0.195016 0,0.243617 0.1528,0.347808 0.4921,0.347808 0.15279,0 0.27187,-0.01397 0.37332,-0.04435 l -0.1862,1.043424"
         id="path644"
         style="fill:#ffffff;stroke-width:0.303762" />
      <path
         d="m 231.73258,13.378046 -0.0337,-0.148236 0.28857,-0.737231 c -0.0683,-0.007 -0.10206,-0.0091 -0.10206,-0.01367 -0.0847,-0.0164 -0.11877,-0.02552 -0.13578,-0.02552 -0.0337,-0.0094 -0.0848,-0.01154 -0.13548,-0.01154 -0.47508,0 -0.79768,0.206254 -1.23905,0.762747 l 0.1531,-0.836865 h -1.47659 l -0.86572,4.698597 h 1.40885 c 0.18651,-1.078053 0.27156,-1.691957 0.39033,-2.202278 0.18651,-0.845978 0.81469,-1.230845 1.27277,-1.145184 0.0507,0.0094 0.0847,0.0094 0.15248,0.03493 l 0.0848,0.0322 0.23755,-0.407953"
         id="path646"
         style="fill:#231f20;stroke-width:0.303762" />
      <path
         d="m 232.22467,12.066097 c -0.11877,-0.04648 -0.13578,-0.04648 -0.15249,-0.05103 -0.0683,-0.0164 -0.11907,-0.02552 -0.11907,-0.02795 -0.0507,-0.007 -0.10176,-0.01154 -0.15279,-0.01154 -0.45808,0 -0.79738,0.208685 -1.23875,0.765178 l 0.13578,-0.714146 h -1.28977 l -0.86572,4.705584 h 1.42555 c 0.50911,-2.87663 0.72964,-3.381787 1.40855,-3.381787 0.051,0 0.10176,0.0046 0.1698,0.01154 l 0.16981,0.03463 0.5091,-1.330479"
         id="path648"
         style="fill:#ffffff;stroke-width:0.303762" />
      <path
         d="m 222.4496,13.515043 c 0,0.593248 0.3393,1.003631 1.10326,1.31195 0.57685,0.234201 0.6619,0.303763 0.6619,0.519434 0,0.291916 -0.25455,0.424052 -0.81469,0.424052 -0.44137,0 -0.8317,-0.05802 -1.28978,-0.185599 l -0.20352,1.08504 0.0677,0.01124 0.25456,0.04617 c 0.0847,0.01671 0.22083,0.03038 0.39033,0.04222 0.3393,0.02552 0.59386,0.03918 0.78067,0.03918 1.52701,0 2.22293,-0.496044 2.22293,-1.569236 0,-0.646711 -0.28827,-1.024591 -1.01821,-1.309824 -0.59385,-0.238757 -0.6622,-0.291916 -0.6622,-0.512447 0,-0.252731 0.23785,-0.382437 0.69592,-0.382437 0.28827,0 0.6619,0.02552 1.03522,0.06956 l 0.20352,-1.089292 c -0.37332,-0.05103 -0.93316,-0.09295 -1.27246,-0.09295 -1.59505,3.04e-4 -2.15519,0.723562 -2.15519,1.59293"
         id="path650"
         style="fill:#ffffff;stroke-width:0.303762" />
      <path
         d="m 215.7975,14.636838 c -0.15279,-0.0161 -0.22083,-0.01853 -0.32259,-0.01853 -0.79768,0 -1.20503,0.240884 -1.20503,0.715968 0,0.29222 0.18682,0.479945 0.50911,0.479945 0.57715,3.04e-4 0.98449,-0.482071 1.01851,-1.177383 z m 1.03492,2.095353 h -1.18801 l 0.034,-0.486627 c -0.35631,0.386689 -0.84841,0.567732 -1.4936,0.567732 -0.76366,0 -1.28978,-0.523991 -1.28978,-1.284308 0,-1.145488 0.91646,-1.81498 2.4945,-1.81498 0.15279,0 0.35631,0.01367 0.57685,0.03706 0.034,-0.155527 0.0507,-0.220228 0.0507,-0.305889 0,-0.310749 -0.25455,-0.426483 -0.91645,-0.426483 -0.40734,0 -0.86572,0.0486 -1.171,0.129707 l -0.20352,0.05103 -0.11877,0.03038 0.18681,-1.059523 c 0.71263,-0.180739 1.1707,-0.24787 1.69682,-0.24787 1.22173,0 1.86692,0.477514 1.86692,1.379385 0,0.231771 -0.017,0.407953 -0.10176,0.931639 l -0.30558,1.671605 -0.0507,0.298902 -0.034,0.238757 -0.017,0.161906 -0.0164,0.12758"
         id="path652"
         style="fill:#ffffff;stroke-width:0.303762" />
      <path
         d="m 220.73577,13.832475 c 0,-0.09963 0,-0.178612 0,-0.241187 0,-0.382437 -0.23754,-0.605095 -0.6619,-0.605095 -0.45807,0 -0.78067,0.298902 -0.91645,0.843852 z m 0.74695,2.800082 c -0.47539,0.12758 -0.95047,0.190155 -1.44287,0.190155 -1.59506,0 -2.42676,-0.723258 -2.42676,-2.109326 0,-1.613282 1.05193,-2.802512 2.47749,-2.802512 1.171,0 1.91765,0.66524 1.91765,1.70836 0,0.347808 -0.051,0.686199 -0.17011,1.16341 h -2.81679 c -0.017,0.07199 -0.017,0.104494 -0.017,0.148236 0,0.54495 0.42406,0.823196 1.23875,0.823196 0.5091,0 0.96748,-0.09295 1.47628,-0.299206 l -0.23663,1.177687"
         id="path654"
         style="fill:#ffffff;stroke-width:0.303762" />
      <path
         d="m 235.17755,13.997114 c 0,-0.491487 -0.20352,-0.957155 -0.78037,-0.957155 -0.72964,0 -1.1707,0.857521 -1.1707,1.613282 0,0.639724 0.30559,1.06894 0.81469,1.05922 0.30559,0 0.96718,-0.419496 1.08595,-1.152171 0.0337,-0.171626 0.0504,-0.359047 0.0504,-0.563176 z m 1.47659,0.602969 c -0.22084,1.564376 -1.30709,2.259688 -2.76606,2.259688 -1.61238,0 -2.25726,-0.975988 -2.25726,-2.169775 0,-1.666744 1.10296,-2.797652 2.80038,-2.797652 1.47598,0 2.25696,0.929513 2.25696,2.1233 0,0.291915 0,0.310749 -0.034,0.584439"
         id="path656"
         style="fill:#ffffff;stroke-width:0.303762" />
    </g>
  </g>
  <g
     id="g1650">
    <rect
       y="1.0467529e-06"
       x="-3.3447265e-08"
       height="27.000032"
       width="50"
       id="rect1233"
       style="color:#000000;clip-rule:nonzero;display:inline;overflow:visible;visibility:visible;isolation:auto;mix-blend-mode:normal;color-interpolation:sRGB;color-interpolation-filters:linearRGB;solid-color:#000000;solid-opacity:1;fill:#ffffff;fill-opacity:1;fill-rule:nonzero;stroke:none;stroke-width:0.99833px;stroke-linecap:butt;stroke-linejoin:miter;stroke-miterlimit:4;stroke-dasharray:none;stroke-dashoffset:0;stroke-opacity:1;marker:none;color-rendering:auto;image-rendering:auto;shape-rendering:auto;text-rendering:auto;enable-background:accumulate" />
    <g
       id="g1569"
       transform="translate(-0.08370626)">
      <path
         sodipodi:nodetypes="ssscccsssscscsssssscccccccssssssssssssssssssssscsssssssssssssssssssssscssscccsssscsssssscccccsscccssccssssccsssssssscscsssscsscccsssssccsssssccccc"
         id="path1224"
         d="m 17.493131,19.287774 c -0.395392,-0.03906 -0.744601,-0.14425 -1.162991,-0.350318 -0.293522,-0.144568 -0.597262,-0.333934 -0.748466,-0.466629 l -0.08224,-0.07217 0.500221,-0.501459 0.50022,-0.501461 0.133195,0.08642 c 0.313204,0.203206 0.69599,0.342732 1.005566,0.366527 0.345525,0.02656 0.818983,-0.07529 1.07996,-0.232314 0.533144,-0.320784 0.716317,-0.657846 0.716317,-1.318107 V 16.02625 l -0.10903,0.107924 c -0.460935,0.45626 -1.09193,0.704 -1.793686,0.704233 -0.530959,2.07e-4 -1.009339,-0.144737 -1.474369,-0.446618 -0.545782,-0.354305 -0.849021,-0.843721 -0.971376,-1.567766 -0.09778,-0.578595 -0.09916,-2.28273 -0.0024,-2.933648 0.101577,-0.683201 0.532996,-1.293672 1.133374,-1.603754 0.708702,-0.3660309 1.704125,-0.3935709 2.395074,-0.06627 0.259333,0.122847 0.422513,0.236698 0.640647,0.446979 l 0.181754,0.175211 v -0.35601 -0.356013 h 0.758455 0.758458 l -0.0056,3.286489 -0.0056,3.286489 -0.04754,0.223574 c -0.170513,0.801924 -0.541237,1.387243 -1.126658,1.778824 -0.512754,0.342976 -1.041728,0.529544 -1.65021,0.582025 -0.277155,0.0239 -0.379789,0.02388 -0.623031,-1.45e-4 z m 0.778789,-3.849603 c 0.333766,-0.06043 0.6132,-0.208412 0.828845,-0.438937 0.140199,-0.149871 0.262307,-0.377892 0.294013,-0.54903 0.03252,-0.17551 0.04792,-1.455672 0.02215,-1.840857 -0.02566,-0.383513 -0.05752,-0.495696 -0.203893,-0.717991 -0.241331,-0.366498 -0.632931,-0.567397 -1.153974,-0.592015 -0.545966,-0.0258 -0.981022,0.135648 -1.298132,0.481717 -0.261856,0.28577 -0.294125,0.429564 -0.310027,1.381549 -0.02101,1.258065 0.03249,1.536307 0.357994,1.861814 0.117983,0.117983 0.189474,0.168515 0.343907,0.243088 0.175578,0.08478 0.421,0.161973 0.589545,0.185422 0.135652,0.01887 0.381702,0.01201 0.529576,-0.01476 z M 5.5828555,16.824392 c -0.9686471,-0.09929 -1.8894412,-0.503375 -2.5640841,-1.125239 -0.051801,-0.04775 -0.094181,-0.0937 -0.094181,-0.102127 0,-0.0084 0.2173714,-0.232538 0.4830484,-0.498035 l 0.4830484,-0.48272 0.1620836,0.135293 c 0.5101149,0.425802 0.9975266,0.641755 1.619729,0.717638 0.2942409,0.03589 0.7864437,0.01497 1.0110443,-0.04296 0.40356,-0.104094 0.7344725,-0.320811 0.8304214,-0.543852 0.063794,-0.14829 0.052391,-0.364679 -0.026292,-0.49894 C 7.3470861,14.143554 7.122064,14.080595 6.0916641,13.992858 5.1583907,13.913392 4.6843659,13.813608 4.2201039,13.598886 3.6995491,13.35813 3.3782665,12.992268 3.2442796,12.487656 3.1911994,12.287759 3.1897353,11.79848 3.2416358,11.605029 3.4285451,10.90836 4.0683876,10.368697 5.0013599,10.120826 6.0164975,9.8511242 7.326522,10.015922 8.3224266,10.538608 c 0.2129063,0.11174 0.5832609,0.351979 0.5832609,0.378346 0,0.02668 -0.8836241,0.895752 -0.9107509,0.895752 -0.015273,0 -0.054548,-0.01907 -0.087278,-0.04238 -0.1041168,-0.07414 -0.5214479,-0.265119 -0.7222757,-0.330533 -0.9608613,-0.312973 -2.0850667,-0.202842 -2.4503955,0.24005 -0.1606277,0.194732 -0.1398663,0.453197 0.051028,0.635215 0.2370134,0.225994 0.6892841,0.335264 1.6630691,0.401795 0.5246253,0.03585 0.765892,0.06876 1.0709612,0.146086 1.0022284,0.254052 1.5090579,0.821708 1.5098907,1.6911 0.00137,1.427862 -1.1362985,2.296955 -2.986063,2.281124 -0.2135833,-0.0018 -0.4210402,-0.0067 -0.461018,-0.01077 z m 5.3996015,-0.0085 C 9.9367768,16.681679 9.3030691,16.110565 9.1439532,15.158987 c -0.053028,-0.317137 -0.034784,-0.774878 0.041049,-1.02991 0.1899808,-0.638916 0.6300401,-1.017154 1.3794438,-1.185659 0.331016,-0.07443 0.678903,-0.09222 1.804254,-0.09228 h 1.02281 l -2.08e-4,-0.327091 c -2.08e-4,-0.394717 -0.021,-0.535892 -0.104086,-0.704748 -0.115213,-0.234135 -0.350405,-0.395585 -0.707794,-0.485877 -0.244741,-0.06183 -0.839705,-0.07909 -1.1313,-0.03283 -0.418118,0.06634 -0.79846,0.20738 -1.114095,0.413121 L 10.157172,11.829001 9.70384,11.375316 C 9.1784276,10.849496 9.1990084,10.922077 9.5155663,10.711405 10.025453,10.372074 10.649265,10.133351 11.283502,10.03485 c 0.275207,-0.042742 0.967872,-0.048165 1.297981,-0.01016 1.413458,0.162724 2.1551,0.793239 2.283083,1.940989 0.01432,0.128448 0.02214,1.001238 0.02214,2.473373 v 2.274881 h -0.747637 -0.747637 v -0.323561 -0.32356 l -0.126744,0.126743 c -0.328478,0.328481 -0.756781,0.5332 -1.28546,0.614427 -0.213473,0.0328 -0.768799,0.03724 -0.99685,0.008 z m 1.586998,-1.357235 c 0.416091,-0.08022 0.665746,-0.299497 0.772944,-0.678894 0.01834,-0.06491 0.03635,-0.243842 0.04309,-0.42821 l 0.01158,-0.316707 -1.00482,2.08e-4 c -0.552653,0 -1.088932,0.0095 -1.191732,0.02097 -0.457311,0.0509 -0.727629,0.205715 -0.800036,0.458181 -0.03086,0.107612 -0.02424,0.353147 0.01242,0.460752 0.09581,0.281193 0.43986,0.464364 0.964139,0.513312 0.282528,0.02638 0.993664,0.0087 1.192411,-0.02958 z m 11.196091,1.346852 c -1.060523,-0.164788 -1.88584,-0.732257 -2.320066,-1.595226 -0.289427,-0.575201 -0.424039,-1.334987 -0.370975,-2.09387 0.04285,-0.612813 0.143785,-1.024917 0.36325,-1.483138 0.482232,-1.006847 1.356562,-1.562557 2.576434,-1.6375389 0.271569,-0.016691 0.745075,0.01721 1.044605,0.074791 1.284852,0.246998 2.05355,1.106424 2.236258,2.5002 0.04041,0.30823 0.04051,0.924132 2.07e-4,1.225291 -0.01682,0.125644 -0.03065,0.230781 -0.03075,0.233636 0,0.0029 -1.051537,0.0052 -2.336539,0.0052 h -2.336366 v 0.09947 c 0,0.139084 0.04987,0.320107 0.138498,0.502788 0.05761,0.118738 0.118002,0.198305 0.254093,0.334769 0.154281,0.154705 0.208129,0.193402 0.396582,0.284994 0.333419,0.162046 0.512862,0.199052 0.965698,0.199151 0.418654,0 0.613816,-0.02892 0.919488,-0.136701 0.29135,-0.102727 0.509284,-0.227113 0.743552,-0.42438 l 0.10546,-0.0888 0.443985,0.444343 0.443984,0.444346 -0.05102,0.05488 c -0.02806,0.03019 -0.131001,0.122193 -0.228754,0.20446 -0.541404,0.455637 -1.207603,0.755736 -1.894438,0.853378 -0.265056,0.03768 -0.814339,0.03663 -1.063184,-0.002 z m 2.335639,-4.021917 c 0,-0.04854 -0.01,-0.149008 -0.02203,-0.223253 -0.138614,-0.855525 -0.886652,-1.399282 -1.846907,-1.342532 -0.296843,0.01754 -0.530125,0.07774 -0.788344,0.203416 -0.190315,0.09263 -0.240619,0.129227 -0.405952,0.295333 -0.153143,0.15386 -0.204936,0.222877 -0.274745,0.366126 -0.106282,0.218094 -0.14821,0.372573 -0.164868,0.607455 l -0.01289,0.181718 h 1.757944 1.757944 l -2.08e-4,-0.08826 z"
         style="fill:#60bb46;fill-opacity:1;stroke-width:0.0207677" />
      <g
         transform="matrix(0.0207677,0,0,0.0207677,55.451432,8.1703361)"
         style="fill:#6b7069;fill-opacity:1"
         id="g1172">
        <path
           id="path1112"
           style="fill:#6b7069;fill-opacity:1"
           d="M -1194.2578,-32.240234 V 188.1543 c 0,121.21683 0.3115,220.706 0.6933,221.08789 0.3819,0.38186 6.5694,0.56873 13.75,0.41601 l 13.0567,-0.27734 0.2558,-85.9043 c 0.1725,-57.95741 0.5951,-86.31366 1.3008,-87.16406 0.8106,-0.97669 13.6986,-1.35998 57.2442,-1.70508 58.229,-0.46147 62.1549,-0.70706 85.1992,-5.32422 10.9044,-2.1848 25.31268,-6.87409 35.30858,-11.49023 32.9676,-15.22454 56.01968,-44.98065 63.61328,-82.11524 6.0666,-29.66696 3.97178,-70.76179 -4.79492,-94.05273 -14.9635,-39.7542803 -47.51725,-63.033286 -99.90624,-71.441406 -8.6643,-1.39056 -22.0659,-1.6991 -87.9707,-2.03125 z m 100.2715,26.2519528 c 39.5673,-0.049818 51.0321,0.7834474 66.7285,3.9726562 17.0469,3.46361 27.85895,7.6806628 39.57225,15.439453 17.4671,11.57007 28.22589,28.761623 33.58789,53.664063 2.9517,13.70868 3.16461,44.889459 0.41211,60.236329 -5.7747,32.19824 -20.22552,53.77288 -44.45312,66.36523 -18.19633,9.45757 -36.46063,13.32676 -71.61913,15.17383 -28.4611,1.49522 -92.6837,1.33789 -94.8184,-0.23242 -1.5834,-1.16476 -1.68,-8.51235 -1.4394,-107.75 l 0.2578,-106.5000006 53,-0.296875 c 6.8938,-0.038814 13.119,-0.065149 18.7715,-0.072266 z" />
        <path
           id="path1056"
           style="fill:#6b7069;fill-opacity:1"
           d="m -776.69922,94.050781 c -3.60005,-0.02108 -7.37963,0.01866 -11.35742,0.119141 -22.6784,0.57289 -32.26852,1.954958 -46.97852,6.765628 -20.9891,6.86409 -36.73815,19.50265 -45.41015,36.44531 -4.6538,9.0922 -9.00211,21.45296 -10.28711,29.24219 -0.634,3.84304 -0.47932,4.32651 1.64648,5.13476 3.7841,1.43868 23.54791,4.44606 25.15821,3.82813 0.8109,-0.31119 1.97463,-2.89923 2.58593,-5.75 5.2229,-24.35354 20.80475,-41.1289 43.62305,-46.96485 10.275,-2.6279 30.09774,-4.27692 41.96094,-3.49218 23.8678,1.57884 39.18174,6.99748 48.46093,17.15039 12.44741,13.61949 16.27471,29.41498 16.4375,67.85156 l 0.10157,24 -33,0.12305 c -35.0217,0.13051 -54.8623,1.60082 -74,5.48047 -44.04,8.9279 -73.81379,33.53743 -83.27149,68.82812 -2.2673,8.46037 -2.57348,11.59719 -2.64648,27.06836 -0.1001,21.35391 1.53418,30.27901 8.01758,43.75976 10.7205,22.29079 32.32529,37.14175 60.90039,41.86329 11.7426,1.94026 41.12042,1.06923 53.69922,-1.5918 23.3603,-4.94186 48.326,-16.92024 64.9707,-31.17383 3.1191,-2.67099 6.09869,-4.85742 6.62109,-4.85742 0.5224,0 1.24622,2.6122 1.60742,5.80469 1.27571,11.27581 8.76486,23.17303 17.03516,27.06054 10.0472,4.72272 30.47461,4.79601 42.81641,0.1543 8.5621,-3.2202 8.63801,-3.36137 7.29101,-13.4043 -0.6309,-4.70406 -1.39436,-8.80065 -1.69726,-9.10351 -0.3029,-0.30287 -3.65397,0.17353 -7.44727,1.05859 -9.0916,2.12124 -19.34543,1.59754 -23.11523,-1.18164 -1.6457,-1.21323 -3.59433,-4.26548 -4.76953,-7.4707 -1.9198,-5.23566 -2.00606,-8.90532 -2.56446,-108.91797 -0.5617,-100.62485 -0.635,-103.7568 -2.6875,-112.76758 -6.5883,-28.92329 -16.93836,-43.85986 -37.69726,-54.4082 -14.37827,-7.306065 -30.80356,-10.506761 -56.00391,-10.654299 z m 23.82813,159.904299 c 21.09001,-0.0729 41.50822,1.15709 42.7539,3.12109 0.4551,0.71747 0.83375,20.55772 0.84375,44.08789 0.0121,33.79527 -0.26959,43.46313 -1.34179,46.0293 -0.7466,1.78671 -4.4591,6.09269 -8.25,9.56836 -16.4896,15.11812 -38.76548,26.40817 -62.39258,31.62109 -8.5566,1.88788 -37.77392,2.88221 -45.16992,1.53711 -22.8072,-4.14791 -37.43424,-16.32083 -43.05274,-35.82617 -2.8606,-9.93082 -3.54898,-31.25245 -1.36328,-42.25586 2.6524,-13.35268 7.18632,-21.81793 16.85742,-31.47266 6.8112,-6.79973 9.86392,-9.00302 17.72852,-12.80273 14.9151,-7.20609 30.22772,-10.66768 55.94922,-12.64648 8.126,-0.62515 17.85113,-0.92781 27.4375,-0.96094 z" />
        <path
           style="fill:#6b7069;fill-opacity:1"
           d="m -639.2585,545.27651 c -12.9292,-1.55006 -39.0425,-8.11067 -41.3815,-10.3965 -0.9947,-0.97212 4.0939,-22.70274 5.5231,-23.58602 0.4982,-0.30789 3.7076,0.37042 7.1321,1.50735 10.823,3.59325 23.8588,6.06795 35.2263,6.68733 18.8278,1.02585 31.1012,-2.9252 43.0239,-13.85019 12.3751,-11.33949 20.4932,-26.74813 36.3458,-68.98627 l 10.032,-26.72928 -55.4468,-153.27072 c -30.4958,-84.29889 -55.4487,-154.05821 -55.4509,-155.02071 0,-1.58843 1.3696,-1.749997 14.8736,-1.749997 10.7052,0 15.1563,0.350547 15.8715,1.249997 0.5467,0.6875 21.5807,58.4 46.7422,128.25 25.1615,69.85 46.6441,129.40914 47.7391,132.35365 1.6268,4.37474 2.2178,5.10614 3.2322,4 0.6827,-0.74451 22.9772,-60.30365 49.5434,-132.35365 26.5661,-72.05 48.7378,-131.5625 49.2704,-132.25 0.7003,-0.90382 5.2272,-1.249997 16.346,-1.249997 8.4577,0 15.3776,0.186907 15.3776,0.415367 0,0.22845 -5.2164,13.84095 -11.5921,30.25 -6.3756,16.40904 -31.3067,81.35963 -55.4023,144.33463 -66.026,172.56157 -74.526,194.32869 -81.614,209 -13.5038,27.95129 -28.0151,44.91578 -45.7298,53.4604 -5.0807,2.45062 -12.5332,5.10133 -16.7304,5.9506 -7.8135,1.58104 -26.7677,2.72297 -32.9314,1.98401 z"
           id="path917" />
      </g>
    </g>
  </g>
</svg>
